<?xml version="1.0" encoding="iso-8859-1"?>
<!-- Uploaded to: SVG Repo, www.svgrepo.com, Generator: SVG Repo Mixer Tools -->
<svg height="800px" width="800px" version="1.1" id="Layer_1" xmlns="http://www.w3.org/2000/svg" xmlns:xlink="http://www.w3.org/1999/xlink" 
	 viewBox="0 0 502 502" xml:space="preserve">
<g>
	<g>
		<g>
			<path style="fill:#E6E6E6;" d="M251,492c-64.374,0-124.894-25.068-170.412-70.587C35.069,375.894,10,315.373,10,251
				S35.069,126.106,80.588,80.587C126.106,35.068,186.626,10,251,10s124.894,25.068,170.412,70.587
				C466.931,126.106,492,186.627,492,251s-25.069,124.894-70.588,170.413C375.894,466.932,315.374,492,251,492z M251,70.756
				c-99.387,0-180.244,80.857-180.244,180.244S151.613,431.244,251,431.244S431.244,350.387,431.244,251S350.387,70.756,251,70.756z
				"/>
			<path d="M251,502c-67.045,0-130.076-26.108-177.483-73.516C26.108,381.075,0,318.043,0,251S26.108,120.925,73.517,73.516
				C120.924,26.108,183.955,0,251,0s130.076,26.108,177.483,73.516C475.892,120.925,502,183.957,502,251
				s-26.108,130.075-73.517,177.484C381.076,475.892,318.045,502,251,502z M251,20c-61.702,0-119.711,24.028-163.341,67.658
				C44.028,131.29,20,189.298,20,251s24.028,119.71,67.659,163.342C131.289,457.972,189.298,482,251,482
				s119.711-24.028,163.341-67.658C457.972,370.71,482,312.702,482,251s-24.028-119.71-67.659-163.342
				C370.711,44.028,312.702,20,251,20z M251,441.244c-104.901,0-190.244-85.343-190.244-190.244S146.099,60.756,251,60.756
				S441.244,146.099,441.244,251S355.901,441.244,251,441.244z M251,80.756c-93.873,0-170.244,76.371-170.244,170.244
				S157.127,421.244,251,421.244S421.244,344.873,421.244,251S344.873,80.756,251,80.756z"/>
		</g>
	</g>
	<path d="M343,263c5.522,0,10-4.477,10-10s-4.478-10-10-10h-83V107c0-5.523-4.478-10-10-10s-10,4.477-10,10v146
		c0,5.523,4.478,10,10,10H343z"/>
	<g>
		<path d="M250,405c-61.364,0-116.387-36.553-140.174-93.123c-2.142-5.091,0.25-10.954,5.342-13.095
			c5.087-2.139,10.952,0.25,13.094,5.342C148.922,353.254,196.706,385,250,385c5.522,0,10,4.477,10,10S255.522,405,250,405z"/>
	</g>
	<g>
		<path d="M109.529,284.002c-4.874,0-9.144-3.569-9.879-8.535C98.555,268.079,98,260.521,98,253c0-5.523,4.478-10,10-10
			s10,4.477,10,10c0,6.542,0.482,13.115,1.434,19.534c0.81,5.463-2.962,10.548-8.426,11.358
			C110.512,283.966,110.018,284.002,109.529,284.002z"/>
	</g>
</g>
</svg>